# xmcd CD database file
#
# Track frame offsets:
#	150
#	18765
#	37422
#
# Disc length: 757 seconds
#
# Revision: 1
# Processed by: cddbd v1.5PL3 Copyright (c) Steve Scherf et al.
# Submitted via: CDex 1.51
#
DISCID=1e02f303
DTITLE=Jennifer Lopez - ain't it funny
DYEAR=1900
DGENRE=Austropop
TTITLE0=ain't it funny
TTITLE1=que ironia(ain't it funny)
TTITLE2=pleasure is mine
EXTD=
EXTT0=
EXTT1=
EXTT2=
PLAYORDER=
